# xmcd
#
# Track frame offsets:
#	150
#	16416
#	30293
#	43198
#	55250
#	67222
#
# Disc length: 1068 seconds
#
# Revision: 1
# Processed by: cddbd v1.5.2PL0 Copyright (c) Steve Scherf et al.
# Submitted via: audiograbber 1.82.02
#
DISCID=4c042a06
DTITLE=Christopher Ernst - Little Pieces
DYEAR=2007
DGENRE=Folk
TTITLE0=Friendships Grow Old
TTITLE1=Missing You
TTITLE2=Times So Real
TTITLE3=What's Happening
TTITLE4=Toy Soldiers
TTITLE5=Love's A Tough Game
EXTD=
EXTT0=
EXTT1=
EXTT2=
EXTT3=
EXTT4=
EXTT5=
PLAYORDER=
